<mxfile host="app.diagrams.net" modified="2023-11-12T14:10:20.619Z" agent="Mozilla/5.0 (Macintosh; Intel Mac OS X 10_15_7) AppleWebKit/605.1.15 (KHTML, like Gecko) Version/17.1 Safari/605.1.15" etag="vEvZxIDyN8vuAlminFMw" version="22.1.0" type="github">
  <diagram name="Page-1" id="03018318-947c-dd8e-b7a3-06fadd420f32">
    <mxGraphModel dx="1865" dy="1167" grid="1" gridSize="10" guides="1" tooltips="1" connect="1" arrows="1" fold="1" page="1" pageScale="1" pageWidth="1100" pageHeight="850" background="#ffffff" math="0" shadow="0">
      <root>
        <mxCell id="0" />
        <mxCell id="1" parent="0" />
        <mxCell id="TfWH0erOhdNT4QYesJIK-12" value="&lt;font style=&quot;font-size: 70px;&quot;&gt;Smart car park&lt;/font&gt;" style="swimlane;whiteSpace=wrap;html=1;startSize=90;" vertex="1" parent="1">
          <mxGeometry x="120" y="70" width="920" height="770" as="geometry" />
        </mxCell>
        <mxCell id="TfWH0erOhdNT4QYesJIK-14" value="" style="endArrow=none;html=1;rounded=0;" edge="1" parent="TfWH0erOhdNT4QYesJIK-12">
          <mxGeometry width="50" height="50" relative="1" as="geometry">
            <mxPoint x="620" y="740" as="sourcePoint" />
            <mxPoint x="620" y="90" as="targetPoint" />
          </mxGeometry>
        </mxCell>
        <mxCell id="TfWH0erOhdNT4QYesJIK-18" value="" style="rounded=0;whiteSpace=wrap;html=1;" vertex="1" parent="TfWH0erOhdNT4QYesJIK-12">
          <mxGeometry x="580" y="250" width="40" height="490" as="geometry" />
        </mxCell>
        <mxCell id="TfWH0erOhdNT4QYesJIK-19" value="" style="rounded=0;whiteSpace=wrap;html=1;" vertex="1" parent="TfWH0erOhdNT4QYesJIK-12">
          <mxGeometry y="90" width="620" height="160" as="geometry" />
        </mxCell>
        <mxCell id="TfWH0erOhdNT4QYesJIK-20" value="" style="rounded=1;whiteSpace=wrap;html=1;" vertex="1" parent="TfWH0erOhdNT4QYesJIK-12">
          <mxGeometry x="10" y="100" width="380" height="140" as="geometry" />
        </mxCell>
        <mxCell id="TfWH0erOhdNT4QYesJIK-21" value="" style="rounded=1;whiteSpace=wrap;html=1;" vertex="1" parent="TfWH0erOhdNT4QYesJIK-12">
          <mxGeometry x="400" y="100" width="210" height="140" as="geometry" />
        </mxCell>
        <mxCell id="TfWH0erOhdNT4QYesJIK-22" value="Set up" style="swimlane;whiteSpace=wrap;html=1;" vertex="1" parent="TfWH0erOhdNT4QYesJIK-12">
          <mxGeometry x="640" y="100" width="260" height="180" as="geometry" />
        </mxCell>
        <mxCell id="TfWH0erOhdNT4QYesJIK-23" value="" style="ellipse;whiteSpace=wrap;html=1;aspect=fixed;" vertex="1" parent="TfWH0erOhdNT4QYesJIK-22">
          <mxGeometry x="20" y="40" width="50" height="50" as="geometry" />
        </mxCell>
        <mxCell id="TfWH0erOhdNT4QYesJIK-24" value="" style="rounded=1;whiteSpace=wrap;html=1;" vertex="1" parent="TfWH0erOhdNT4QYesJIK-22">
          <mxGeometry x="80" y="40" width="160" height="50" as="geometry" />
        </mxCell>
        <mxCell id="TfWH0erOhdNT4QYesJIK-25" value="" style="rounded=1;whiteSpace=wrap;html=1;" vertex="1" parent="TfWH0erOhdNT4QYesJIK-22">
          <mxGeometry x="80" y="110" width="160" height="50" as="geometry" />
        </mxCell>
        <mxCell id="TfWH0erOhdNT4QYesJIK-26" value="" style="ellipse;whiteSpace=wrap;html=1;aspect=fixed;" vertex="1" parent="TfWH0erOhdNT4QYesJIK-22">
          <mxGeometry x="20" y="110" width="50" height="50" as="geometry" />
        </mxCell>
        <mxCell id="TfWH0erOhdNT4QYesJIK-51" value="&lt;font style=&quot;font-size: 18px;&quot;&gt;MQTT Broker&lt;br&gt;&lt;/font&gt;" style="text;strokeColor=none;fillColor=none;html=1;fontSize=24;fontStyle=1;verticalAlign=middle;align=center;" vertex="1" parent="TfWH0erOhdNT4QYesJIK-22">
          <mxGeometry x="110" y="45" width="100" height="40" as="geometry" />
        </mxCell>
        <mxCell id="TfWH0erOhdNT4QYesJIK-52" value="&lt;font style=&quot;font-size: 18px;&quot;&gt;MQTT Sub&lt;br&gt;&lt;/font&gt;" style="text;strokeColor=none;fillColor=none;html=1;fontSize=24;fontStyle=1;verticalAlign=middle;align=center;" vertex="1" parent="TfWH0erOhdNT4QYesJIK-22">
          <mxGeometry x="110" y="115" width="100" height="40" as="geometry" />
        </mxCell>
        <mxCell id="TfWH0erOhdNT4QYesJIK-27" value="" style="rounded=0;whiteSpace=wrap;html=1;" vertex="1" parent="TfWH0erOhdNT4QYesJIK-12">
          <mxGeometry x="580" y="250" width="40" height="80" as="geometry" />
        </mxCell>
        <mxCell id="TfWH0erOhdNT4QYesJIK-28" value="&lt;font style=&quot;font-size: 25px;&quot;&gt;Publisher&lt;/font&gt;" style="swimlane;whiteSpace=wrap;html=1;startSize=60;" vertex="1" parent="TfWH0erOhdNT4QYesJIK-12">
          <mxGeometry x="640" y="300" width="260" height="320" as="geometry" />
        </mxCell>
        <mxCell id="TfWH0erOhdNT4QYesJIK-53" value="Plate Number" style="text;strokeColor=none;fillColor=none;html=1;fontSize=24;fontStyle=1;verticalAlign=middle;align=center;" vertex="1" parent="TfWH0erOhdNT4QYesJIK-28">
          <mxGeometry x="50" y="80" width="100" height="40" as="geometry" />
        </mxCell>
        <mxCell id="TfWH0erOhdNT4QYesJIK-54" value="" style="rounded=0;whiteSpace=wrap;html=1;" vertex="1" parent="TfWH0erOhdNT4QYesJIK-28">
          <mxGeometry x="20" y="120" width="220" height="40" as="geometry" />
        </mxCell>
        <mxCell id="TfWH0erOhdNT4QYesJIK-56" value="" style="rounded=0;whiteSpace=wrap;html=1;" vertex="1" parent="TfWH0erOhdNT4QYesJIK-28">
          <mxGeometry x="20" y="170" width="220" height="50" as="geometry" />
        </mxCell>
        <mxCell id="TfWH0erOhdNT4QYesJIK-57" value="" style="rounded=0;whiteSpace=wrap;html=1;" vertex="1" parent="TfWH0erOhdNT4QYesJIK-28">
          <mxGeometry x="20" y="230" width="220" height="50" as="geometry" />
        </mxCell>
        <mxCell id="TfWH0erOhdNT4QYesJIK-58" value="" style="whiteSpace=wrap;html=1;aspect=fixed;" vertex="1" parent="TfWH0erOhdNT4QYesJIK-28">
          <mxGeometry x="20" y="170" width="50" height="50" as="geometry" />
        </mxCell>
        <mxCell id="TfWH0erOhdNT4QYesJIK-59" value="" style="whiteSpace=wrap;html=1;aspect=fixed;" vertex="1" parent="TfWH0erOhdNT4QYesJIK-28">
          <mxGeometry x="20" y="230" width="50" height="50" as="geometry" />
        </mxCell>
        <mxCell id="TfWH0erOhdNT4QYesJIK-60" value="Car In" style="text;strokeColor=none;fillColor=none;html=1;fontSize=24;fontStyle=1;verticalAlign=middle;align=center;" vertex="1" parent="TfWH0erOhdNT4QYesJIK-28">
          <mxGeometry x="100" y="175" width="100" height="40" as="geometry" />
        </mxCell>
        <mxCell id="TfWH0erOhdNT4QYesJIK-61" value="Car out" style="text;strokeColor=none;fillColor=none;html=1;fontSize=24;fontStyle=1;verticalAlign=middle;align=center;" vertex="1" parent="TfWH0erOhdNT4QYesJIK-28">
          <mxGeometry x="100" y="235" width="100" height="40" as="geometry" />
        </mxCell>
        <mxCell id="TfWH0erOhdNT4QYesJIK-62" value="-" style="text;strokeColor=none;fillColor=none;html=1;fontSize=24;fontStyle=1;verticalAlign=middle;align=center;" vertex="1" parent="TfWH0erOhdNT4QYesJIK-28">
          <mxGeometry x="80" y="120" width="100" height="40" as="geometry" />
        </mxCell>
        <mxCell id="TfWH0erOhdNT4QYesJIK-63" value="" style="html=1;shadow=0;dashed=0;align=center;verticalAlign=middle;shape=mxgraph.arrows2.arrow;dy=0.6;dx=40;notch=0;" vertex="1" parent="TfWH0erOhdNT4QYesJIK-28">
          <mxGeometry x="30" y="180" width="30" height="30" as="geometry" />
        </mxCell>
        <mxCell id="TfWH0erOhdNT4QYesJIK-64" value="" style="html=1;shadow=0;dashed=0;align=center;verticalAlign=middle;shape=mxgraph.arrows2.arrow;dy=0.6;dx=40;flipH=1;notch=0;" vertex="1" parent="TfWH0erOhdNT4QYesJIK-28">
          <mxGeometry x="30" y="240" width="30" height="30" as="geometry" />
        </mxCell>
        <mxCell id="TfWH0erOhdNT4QYesJIK-29" value="Test Mode" style="swimlane;whiteSpace=wrap;html=1;" vertex="1" parent="TfWH0erOhdNT4QYesJIK-12">
          <mxGeometry x="640" y="638" width="260" height="92" as="geometry" />
        </mxCell>
        <mxCell id="TfWH0erOhdNT4QYesJIK-30" value="" style="rounded=1;whiteSpace=wrap;html=1;" vertex="1" parent="TfWH0erOhdNT4QYesJIK-29">
          <mxGeometry x="80" y="32" width="160" height="50" as="geometry" />
        </mxCell>
        <mxCell id="TfWH0erOhdNT4QYesJIK-31" value="" style="ellipse;whiteSpace=wrap;html=1;aspect=fixed;" vertex="1" parent="TfWH0erOhdNT4QYesJIK-29">
          <mxGeometry x="20" y="32" width="50" height="50" as="geometry" />
        </mxCell>
        <mxCell id="TfWH0erOhdNT4QYesJIK-50" value="On ( OFF )" style="text;strokeColor=none;fillColor=none;html=1;fontSize=24;fontStyle=1;verticalAlign=middle;align=center;" vertex="1" parent="TfWH0erOhdNT4QYesJIK-29">
          <mxGeometry x="110" y="37" width="100" height="40" as="geometry" />
        </mxCell>
        <mxCell id="TfWH0erOhdNT4QYesJIK-32" value="&lt;font style=&quot;font-size: 24px;&quot;&gt;ID&lt;/font&gt;" style="text;strokeColor=none;fillColor=none;spacingLeft=4;spacingRight=4;overflow=hidden;rotatable=0;points=[[0,0.5],[1,0.5]];portConstraint=eastwest;fontSize=27;whiteSpace=wrap;html=1;verticalAlign=middle;" vertex="1" parent="TfWH0erOhdNT4QYesJIK-12">
          <mxGeometry x="40" y="290" width="60" height="40" as="geometry" />
        </mxCell>
        <mxCell id="TfWH0erOhdNT4QYesJIK-35" value="Plate Number" style="text;strokeColor=none;fillColor=none;spacingLeft=4;spacingRight=4;overflow=hidden;rotatable=0;points=[[0,0.5],[1,0.5]];portConstraint=eastwest;fontSize=24;whiteSpace=wrap;html=1;verticalAlign=middle;" vertex="1" parent="TfWH0erOhdNT4QYesJIK-12">
          <mxGeometry x="130" y="290" width="190" height="40" as="geometry" />
        </mxCell>
        <mxCell id="TfWH0erOhdNT4QYesJIK-36" value="&lt;font style=&quot;font-size: 24px;&quot;&gt;Car In&lt;/font&gt;" style="text;strokeColor=none;fillColor=none;spacingLeft=4;spacingRight=4;overflow=hidden;rotatable=0;points=[[0,0.5],[1,0.5]];portConstraint=eastwest;fontSize=30;whiteSpace=wrap;html=1;verticalAlign=middle;" vertex="1" parent="TfWH0erOhdNT4QYesJIK-12">
          <mxGeometry x="340" y="290" width="80" height="40" as="geometry" />
        </mxCell>
        <mxCell id="TfWH0erOhdNT4QYesJIK-38" value="&lt;font style=&quot;font-size: 24px;&quot;&gt;Car Out&lt;/font&gt;" style="text;strokeColor=none;fillColor=none;spacingLeft=4;spacingRight=4;overflow=hidden;rotatable=0;points=[[0,0.5],[1,0.5]];portConstraint=eastwest;fontSize=30;whiteSpace=wrap;html=1;verticalAlign=middle;" vertex="1" parent="TfWH0erOhdNT4QYesJIK-12">
          <mxGeometry x="450" y="290" width="100" height="40" as="geometry" />
        </mxCell>
        <mxCell id="TfWH0erOhdNT4QYesJIK-40" value="" style="endArrow=none;dashed=1;html=1;dashPattern=1 3;strokeWidth=2;rounded=0;" edge="1" parent="TfWH0erOhdNT4QYesJIK-12">
          <mxGeometry width="50" height="50" relative="1" as="geometry">
            <mxPoint x="100" y="340" as="sourcePoint" />
            <mxPoint x="100" y="700" as="targetPoint" />
          </mxGeometry>
        </mxCell>
        <mxCell id="TfWH0erOhdNT4QYesJIK-41" value="" style="endArrow=none;dashed=1;html=1;dashPattern=1 3;strokeWidth=2;rounded=0;" edge="1" parent="TfWH0erOhdNT4QYesJIK-12">
          <mxGeometry width="50" height="50" relative="1" as="geometry">
            <mxPoint x="440" y="340" as="sourcePoint" />
            <mxPoint x="440" y="700" as="targetPoint" />
          </mxGeometry>
        </mxCell>
        <mxCell id="TfWH0erOhdNT4QYesJIK-42" value="" style="endArrow=none;dashed=1;html=1;dashPattern=1 3;strokeWidth=2;rounded=0;" edge="1" parent="TfWH0erOhdNT4QYesJIK-12">
          <mxGeometry width="50" height="50" relative="1" as="geometry">
            <mxPoint x="560" y="340" as="sourcePoint" />
            <mxPoint x="560" y="700" as="targetPoint" />
          </mxGeometry>
        </mxCell>
        <mxCell id="TfWH0erOhdNT4QYesJIK-43" value="" style="endArrow=none;dashed=1;html=1;dashPattern=1 3;strokeWidth=2;rounded=0;" edge="1" parent="TfWH0erOhdNT4QYesJIK-12">
          <mxGeometry width="50" height="50" relative="1" as="geometry">
            <mxPoint x="30" y="340" as="sourcePoint" />
            <mxPoint x="30" y="700" as="targetPoint" />
          </mxGeometry>
        </mxCell>
        <mxCell id="TfWH0erOhdNT4QYesJIK-45" value="" style="endArrow=none;html=1;rounded=0;entryX=0.605;entryY=0.143;entryDx=0;entryDy=0;entryPerimeter=0;" edge="1" parent="TfWH0erOhdNT4QYesJIK-12" target="TfWH0erOhdNT4QYesJIK-20">
          <mxGeometry width="50" height="50" relative="1" as="geometry">
            <mxPoint x="140" y="220" as="sourcePoint" />
            <mxPoint x="190" y="170" as="targetPoint" />
          </mxGeometry>
        </mxCell>
        <mxCell id="TfWH0erOhdNT4QYesJIK-46" value="&lt;font style=&quot;font-size: 70px;&quot;&gt;150&lt;/font&gt;" style="text;strokeColor=none;fillColor=none;html=1;fontSize=70;fontStyle=1;verticalAlign=middle;align=center;" vertex="1" parent="TfWH0erOhdNT4QYesJIK-12">
          <mxGeometry x="230" y="170" width="100" height="39" as="geometry" />
        </mxCell>
        <mxCell id="TfWH0erOhdNT4QYesJIK-47" value="&lt;font style=&quot;font-size: 70px;&quot;&gt;39&lt;/font&gt;" style="text;strokeColor=none;fillColor=none;html=1;fontSize=70;fontStyle=1;verticalAlign=middle;align=center;" vertex="1" parent="TfWH0erOhdNT4QYesJIK-12">
          <mxGeometry x="40" y="140" width="100" height="40" as="geometry" />
        </mxCell>
        <mxCell id="TfWH0erOhdNT4QYesJIK-48" value="" style="verticalLabelPosition=bottom;verticalAlign=top;html=1;shape=mxgraph.basic.sun" vertex="1" parent="TfWH0erOhdNT4QYesJIK-12">
          <mxGeometry x="420" y="120" width="100" height="100" as="geometry" />
        </mxCell>
        <mxCell id="TfWH0erOhdNT4QYesJIK-49" value="28&amp;nbsp;°C" style="text;strokeColor=none;fillColor=none;html=1;fontSize=24;fontStyle=1;verticalAlign=middle;align=center;" vertex="1" parent="TfWH0erOhdNT4QYesJIK-12">
          <mxGeometry x="509" y="180" width="100" height="40" as="geometry" />
        </mxCell>
        <mxCell id="TfWH0erOhdNT4QYesJIK-17" value="" style="rounded=0;whiteSpace=wrap;html=1;" vertex="1" parent="1">
          <mxGeometry x="120" y="810" width="920" height="40" as="geometry" />
        </mxCell>
        <mxCell id="TfWH0erOhdNT4QYesJIK-39" value="" style="endArrow=none;dashed=1;html=1;dashPattern=1 3;strokeWidth=2;rounded=0;" edge="1" parent="1">
          <mxGeometry width="50" height="50" relative="1" as="geometry">
            <mxPoint x="440" y="410" as="sourcePoint" />
            <mxPoint x="440" y="770" as="targetPoint" />
          </mxGeometry>
        </mxCell>
      </root>
    </mxGraphModel>
  </diagram>
</mxfile>
